<?xml version="1.0" encoding="UTF-8"?>
<svg version="1.1" xmlns="http://www.w3.org/2000/svg" width="1024" height="1024">
<path d="M0 0 C337.92 0 675.84 0 1024 0 C1024 337.92 1024 675.84 1024 1024 C686.08 1024 348.16 1024 0 1024 C0 686.08 0 348.16 0 0 Z " fill="#050505" transform="translate(0,0)"/>
<path d="M0 0 C13.2 0 26.4 0 40 0 C40 18.15 40 36.3 40 55 C32.74 55 25.48 55 18 55 C18 62.26 18 69.52 18 77 C10.74 77 3.48 77 -4 77 C-4 83.93 -4 90.86 -4 98 C-17.02224041 98.98441936 -29.94484816 99.11891904 -43 99.0625 C-45.04687389 99.05747043 -47.093749 99.05291012 -49.140625 99.04882812 C-54.09380536 99.03880956 -59.04681321 99.01921495 -64 99 C-64 107.25 -64 115.5 -64 124 C-138.58 124 -213.16 124 -290 124 C-290 131.26 -290 138.52 -290 146 C-318.05 146 -346.1 146 -375 146 C-375 152.6 -375 159.2 -375 166 C-382.26 166 -389.52 166 -397 166 C-397 173.59 -397 181.18 -397 189 C-403.93 189 -410.86 189 -418 189 C-418.33 216.39 -418.66 243.78 -419 272 C-425.6 272 -432.2 272 -439 272 C-439 292.79 -439 313.58 -439 335 C-445.93 335 -452.86 335 -460 335 C-460 347.87 -460 360.74 -460 374 C-466.93 374 -473.86 374 -481 374 C-481 381.26 -481 388.52 -481 396 C-488.26 396 -495.52 396 -503 396 C-503 402.6 -503 409.2 -503 416 C-509.27 416 -515.54 416 -522 416 C-522 423.26 -522 430.52 -522 438 C-528.93 438 -535.86 438 -543 438 C-542.96041531 444.86612807 -542.96041531 444.86612807 -542.90991211 451.73217773 C-542.90741455 452.58239502 -542.90491699 453.4326123 -542.90234375 454.30859375 C-542.89710693 455.18314209 -542.89187012 456.05769043 -542.88647461 456.95874023 C-543 459 -543 459 -544 460 C-547.10251201 460.08874135 -550.1826812 460.11518455 -553.28515625 460.09765625 C-554.21597519 460.0962413 -555.14679413 460.09482635 -556.1058197 460.09336853 C-559.09141191 460.08775172 -562.07693029 460.0751964 -565.0625 460.0625 C-567.08137913 460.05748716 -569.10025943 460.05292388 -571.11914062 460.04882812 C-576.07947871 460.03862587 -581.0396563 460.01905382 -586 460 C-586 473.53 -586 487.06 -586 501 C-578.74 501 -571.48 501 -564 501 C-564 493.74 -564 486.48 -564 479 C-556.41 479 -548.82 479 -541 479 C-541 472.07 -541 465.14 -541 458 C-528.46 458 -515.92 458 -503 458 C-503 464.93 -503 471.86 -503 479 C-489.14 479 -475.28 479 -461 479 C-461 472.4 -461 465.8 -461 459 C-474.53 459 -488.06 459 -502 459 C-502 451.74 -502 444.48 -502 437 C-494.74 437 -487.48 437 -480 437 C-480 430.4 -480 423.8 -480 417 C-459.54 417 -439.08 417 -418 417 C-418 423.6 -418 430.2 -418 437 C-397.87 437 -377.74 437 -357 437 C-357 443.6 -357 450.2 -357 457 C-328.95 457 -300.9 457 -272 457 C-272 464.59 -272 472.18 -272 480 C-278.93 480 -285.86 480 -293 480 C-293 486.93 -293 493.86 -293 501 C-327.32 501 -361.64 501 -397 501 C-397 494.07 -397 487.14 -397 480 C-417.79 480 -438.58 480 -460 480 C-460 486.6 -460 493.2 -460 500 C-446.8 500 -433.6 500 -420 500 C-418.8517315 502.296537 -418.88438825 503.58313167 -418.90234375 506.1328125 C-418.90556641 506.93847656 -418.90878906 507.74414062 -418.91210938 508.57421875 C-418.92048828 509.41597656 -418.92886719 510.25773437 -418.9375 511.125 C-418.94201172 511.97449219 -418.94652344 512.82398438 -418.95117188 513.69921875 C-418.96297126 515.79950909 -418.98090694 517.8997633 -419 520 C-417.73293213 519.99476318 -416.46586426 519.98952637 -415.16040039 519.98413086 C-410.4771393 519.96608486 -405.79388129 519.95456947 -401.1105957 519.94506836 C-399.08031702 519.94002722 -397.05004198 519.93319443 -395.01977539 519.92456055 C-392.10822653 519.91248533 -389.1967255 519.90676966 -386.28515625 519.90234375 C-384.91485008 519.89460182 -384.91485008 519.89460182 -383.51686096 519.88670349 C-381.34424573 519.88650832 -379.17172704 519.93788195 -377 520 C-376 521 -376 521 -375.88647461 523.13305664 C-375.89171143 524.04949951 -375.89694824 524.96594238 -375.90234375 525.91015625 C-375.90556641 526.89951172 -375.90878906 527.88886719 -375.91210938 528.90820312 C-375.92048828 529.94912109 -375.92886719 530.99003906 -375.9375 532.0625 C-375.94201172 533.10728516 -375.94652344 534.15207031 -375.95117188 535.22851562 C-375.96300073 537.81903454 -375.98093681 540.40952422 -376 543 C-382.93 543 -389.86 543 -397 543 C-396.96041973 549.20792914 -396.96041973 549.20792914 -396.90991211 555.41577148 C-396.90616577 556.56928101 -396.90616577 556.56928101 -396.90234375 557.74609375 C-396.89710693 558.53685303 -396.89187012 559.3276123 -396.88647461 560.14233398 C-397 562 -397 562 -398 563 C-399.90243762 563.09391296 -401.80838459 563.11743658 -403.71313477 563.11352539 C-404.9343251 563.11344986 -406.15551544 563.11337433 -407.41371155 563.11329651 C-408.75627686 563.10818911 -410.09884175 563.10297311 -411.44140625 563.09765625 C-412.80761158 563.09579199 -414.17381757 563.09436813 -415.5400238 563.09336853 C-419.14201695 563.08954394 -422.74397 563.07971417 -426.34594727 563.06866455 C-430.01903745 563.05844916 -433.69213409 563.05387064 -437.36523438 563.04882812 C-444.57684334 563.03809184 -451.78841095 563.02049553 -459 563 C-459 556.4 -459 549.8 -459 543 C-471.87 543 -484.74 543 -498 543 C-498 535.74 -498 528.48 -498 521 C-504.93 521 -511.86 521 -519 521 C-519 527.6 -519 534.2 -519 541 C-512.73 541 -506.46 541 -500 541 C-500.33 548.26 -500.66 555.52 -501 563 C-522.12 563 -543.24 563 -565 563 C-565 556.4 -565 549.8 -565 543 C-578.53 543 -592.06 543 -606 543 C-606 536.4 -606 529.8 -606 523 C-612.27 523 -618.54 523 -625 523 C-625 515.74 -625 508.48 -625 501 C-632.26 501 -639.52 501 -647 501 C-647 480.21 -647 459.42 -647 438 C-639.37155725 438 -632.4892845 438.22189252 -625 439 C-625 431.74 -625 424.48 -625 417 C-611.47 417 -597.94 417 -584 417 C-583.67 409.74 -583.34 402.48 -583 395 C-577.72 395 -572.44 395 -567 395 C-567.01160156 393.56785156 -567.02320313 392.13570312 -567.03515625 390.66015625 C-567.04453255 388.79427213 -567.05363292 386.92838661 -567.0625 385.0625 C-567.07087891 384.11697266 -567.07925781 383.17144531 -567.08789062 382.19726562 C-567.09111328 381.29814453 -567.09433594 380.39902344 -567.09765625 379.47265625 C-567.10289307 378.64000244 -567.10812988 377.80734863 -567.11352539 376.94946289 C-567 375 -567 375 -566 374 C-564.36527118 373.91299658 -562.72685945 373.89298937 -561.08984375 373.90234375 C-560.199021 373.90484131 -559.30819824 373.90733887 -558.39038086 373.90991211 C-556.68120483 373.92356812 -556.68120483 373.92356812 -554.9375 373.9375 C-549.5234375 373.9684375 -549.5234375 373.9684375 -544 374 C-544 361.13 -544 348.26 -544 335 C-537.07 335 -530.14 335 -523 335 C-522.67 313.88 -522.34 292.76 -522 271 C-515.07 271 -508.14 271 -501 271 C-501 236.68 -501 202.36 -501 167 C-494.07 167 -487.14 167 -480 167 C-480 159.74 -480 152.48 -480 145 C-473.73 145 -467.46 145 -461 145 C-461 137.74 -461 130.48 -461 123 C-453.74 123 -446.48 123 -439 123 C-439 115.41 -439 107.82 -439 100 C-405.67 100 -372.34 100 -338 100 C-338 92.41 -338 84.82 -338 77 C-261.11 77 -184.22 77 -105 77 C-105 70.07 -105 63.14 -105 56 C-104 55 -104 55 -101.79173279 54.87974548 C-100.81688431 54.88196609 -99.84203583 54.88418671 -98.83764648 54.88647461 C-97.73658066 54.88655014 -96.63551483 54.88662567 -95.50108337 54.88670349 C-94.3031868 54.89186478 -93.10529022 54.89702606 -91.87109375 54.90234375 C-90.65172623 54.9037587 -89.4323587 54.90517365 -88.17604065 54.90663147 C-84.2631693 54.91225033 -80.35035419 54.92480604 -76.4375 54.9375 C-73.79231853 54.94251257 -71.14713617 54.9470759 -68.50195312 54.95117188 C-62.00128026 54.96222589 -55.50064968 54.97950317 -49 55 C-49 47.74 -49 40.48 -49 33 C-46.60417654 31.80208827 -45.13222462 31.8793256 -42.45849609 31.88647461 C-41.04725967 31.88658791 -41.04725967 31.88658791 -39.60751343 31.88670349 C-38.58976837 31.89186478 -37.57202332 31.89702606 -36.5234375 31.90234375 C-34.96286118 31.90446617 -34.96286118 31.90446617 -33.37075806 31.90663147 C-30.03880979 31.91224134 -26.70692805 31.92479553 -23.375 31.9375 C-21.11979264 31.94251373 -18.86458422 31.94707686 -16.609375 31.95117188 C-11.07287025 31.96136426 -5.53650983 31.9809378 0 32 C0 21.44 0 10.88 0 0 Z " fill="#FDFDFD" transform="translate(833,217)"/>
<path d="M0 0 C0 7.59 0 15.18 0 23 C-7.26 23 -14.52 23 -22 23 C-22 30.26 -22 37.52 -22 45 C-35.86 45 -49.72 45 -64 45 C-64 51.27 -64 57.54 -64 64 C-118.45 64 -172.9 64 -229 64 C-228.505 68.455 -228.505 68.455 -228 73 C-228 77.29 -228 81.58 -228 86 C-255.06 86 -282.12 86 -310 86 C-310 79.07 -310 72.14 -310 65 C-324.19 65 -338.38 65 -353 65 C-353 51.14 -353 37.28 -353 23 C-345.74 23 -338.48 23 -331 23 C-331 15.74 -331 8.48 -331 1 C-289.55463578 0.87251727 -248.10927133 0.74511274 -206.66390653 0.61781773 C-201.7734149 0.60279704 -196.88292327 0.58777568 -191.99243164 0.57275391 C-191.01880278 0.56976329 -190.04517391 0.56677268 -189.04204115 0.56369144 C-173.26709429 0.51523525 -157.4921476 0.46672489 -141.71720097 0.41819459 C-125.53652944 0.36841732 -109.35585773 0.31869807 -93.17518586 0.26903296 C-83.18694662 0.23837312 -73.19870753 0.20766775 -63.21046861 0.17690456 C-56.36569755 0.1558274 -49.52092632 0.13480649 -42.67615495 0.11383021 C-38.72424041 0.10171762 -34.77232594 0.08957985 -30.82041168 0.07737541 C-27.20380708 0.06620704 -23.58720228 0.05510916 -19.97059729 0.0440678 C-18.03967869 0.03815431 -16.10876032 0.03216498 -14.17784196 0.02617311 C-13.03229976 0.02268972 -11.88675756 0.01920632 -10.70650196 0.01561737 C-9.71808994 0.01257961 -8.72967792 0.00954185 -7.71131402 0.00641203 C-5.14088231 0.00033317 -2.5704389 0 0 0 Z " fill="#FEFEFE" transform="translate(768,466)"/>
<path d="M0 0 C0 7.59 0 15.18 0 23 C-6.27 23 -12.54 23 -19 23 C-19.33 30.26 -19.66 37.52 -20 45 C-33.70869218 45.84361183 -47.26366669 46.08749257 -61 46 C-61 53.26 -61 60.52 -61 68 C-115.78 68 -170.56 68 -227 68 C-227 74.93 -227 81.86 -227 89 C-281.12 89 -335.24 89 -391 89 C-392.125 75.5 -392.125 75.5 -392.09765625 69.484375 C-392.09443359 68.21464844 -392.09121094 66.94492187 -392.08789062 65.63671875 C-392.07951172 64.35410156 -392.07113281 63.07148438 -392.0625 61.75 C-392.05746786 60.40755378 -392.05290802 59.0651057 -392.04882812 57.72265625 C-392.03717019 54.48175093 -392.01923999 51.24086918 -392 48 C-384.74 48 -377.48 48 -370 48 C-370 40.08 -370 32.16 -370 24 C-368.34669678 23.98018066 -366.69339355 23.96036133 -364.98999023 23.93994141 C-356.80575746 23.84014312 -348.62161995 23.73357713 -340.4375 23.625 C-339.27931133 23.60975218 -339.27931133 23.60975218 -338.09772491 23.59419632 C-317.24905914 23.31875341 -296.40368664 22.964653 -275.55859375 22.48828125 C-274.56910862 22.46574343 -273.57962349 22.4432056 -272.56015396 22.41998482 C-268.53429562 22.32827025 -264.50844121 22.23638345 -260.48258781 22.1444521 C-229.04830052 21.42770459 -197.62457322 20.80282569 -166.18091583 20.81196976 C-163.95554926 20.81249573 -161.73018794 20.8113353 -159.50482178 20.81002808 C-155.44978012 20.80890402 -151.39486489 20.81887352 -147.33984375 20.83203125 C-145.57514488 20.83382889 -145.57514488 20.83382889 -143.77479553 20.83566284 C-142.69661057 20.84195709 -141.6184256 20.84825134 -140.50756836 20.85473633 C-139.11869667 20.86045403 -139.11869667 20.86045403 -137.70176697 20.86628723 C-135 21 -135 21 -129 22 C-129 15.07 -129 8.14 -129 1 C-112.32814348 0.86957051 -95.65628663 0.73918209 -78.98442936 0.60884857 C-71.24393256 0.5483356 -63.50343587 0.48780795 -55.76293945 0.42724609 C-49.01872878 0.37447924 -42.2745179 0.32173957 -35.53030676 0.26903296 C-31.95714041 0.24110738 -28.38397417 0.21316791 -24.81080818 0.18519592 C-20.82838091 0.1540206 -16.84595318 0.12290595 -12.86352539 0.09179688 C-11.07357651 0.07777077 -11.07357651 0.07777077 -9.24746704 0.0634613 C-7.62988747 0.05084007 -7.62988747 0.05084007 -5.97962952 0.03796387 C-5.03663529 0.03058952 -4.09364107 0.02321518 -3.12207127 0.01561737 C-1 0 -1 0 0 0 Z " fill="#FCFCFC" transform="translate(829,358)"/>
<path d="M0 0 C1.80164108 0.0001133 1.80164108 0.0001133 3.63967896 0.00022888 C5.59283524 0.00797081 5.59283524 0.00797081 7.58544922 0.01586914 C8.92780505 0.01773401 10.27016156 0.01915759 11.61251831 0.02015686 C15.14709347 0.02397661 18.68162759 0.03380227 22.21618652 0.04486084 C25.82234136 0.05508661 29.42850282 0.05965698 33.03466797 0.06469727 C40.11150928 0.07542502 47.18831601 0.09301744 54.26513672 0.11352539 C54.26513672 6.38352539 54.26513672 12.65352539 54.26513672 19.11352539 C129.50513672 19.11352539 204.74513672 19.11352539 282.26513672 19.11352539 C282.26513672 26.37352539 282.26513672 33.63352539 282.26513672 41.11352539 C274.67513672 41.11352539 267.08513672 41.11352539 259.26513672 41.11352539 C259.59513672 44.74352539 259.92513672 48.37352539 260.26513672 52.11352539 C260.26513672 55.41352539 260.26513672 58.71352539 260.26513672 62.11352539 C241.12513672 62.11352539 221.98513672 62.11352539 202.26513672 62.11352539 C202.26513672 69.04352539 202.26513672 75.97352539 202.26513672 83.11352539 C198.83734877 84.25612137 196.21865723 84.23650918 192.60237122 84.23377991 C191.92193825 84.23463433 191.24150528 84.23548876 190.54045314 84.23636907 C188.25570192 84.23801892 185.97102378 84.23251059 183.6862793 84.22705078 C182.05038963 84.22676878 180.41449983 84.2269269 178.77861023 84.22749329 C174.33263764 84.22778074 169.8866919 84.22189233 165.44072556 84.21491933 C160.7962344 84.20867722 156.15174264 84.20808131 151.50724792 84.20689392 C142.7100156 84.20378314 133.91279568 84.19557315 125.11556882 84.18554443 C115.10118119 84.17437545 105.08679299 84.16887086 95.07240069 84.163849 C74.46997226 84.15339034 53.8675557 84.13559485 33.26513672 84.11352539 C33.26513672 76.85352539 33.26513672 69.59352539 33.26513672 62.11352539 C13.46513672 62.11352539 -6.33486328 62.11352539 -26.73486328 62.11352539 C-26.73486328 54.52352539 -26.73486328 46.93352539 -26.73486328 39.11352539 C-20.46486328 39.11352539 -14.19486328 39.11352539 -7.73486328 39.11352539 C-7.73486328 26.57352539 -7.73486328 14.03352539 -7.73486328 1.11352539 C-5.05387275 -0.22696987 -3.00175122 -0.00627981 0 0 Z " fill="#FDFDFD" transform="translate(401.73486328125,550.886474609375)"/>
<path d="M0 0 C0.33 0 0.66 0 1 0 C1 22.77 1 45.54 1 69 C10.9 68.505 10.9 68.505 21 68 C21.33 61.73 21.66 55.46 22 49 C22.33 49 22.66 49 23 49 C23 56.26 23 63.52 23 71 C15.74 71 8.48 71 1 71 C1 84.86 1 98.72 1 113 C15.19 113 29.38 113 44 113 C44 136.00675676 44 136.00675676 43.5 143.75 C43.45230469 144.56597656 43.40460938 145.38195312 43.35546875 146.22265625 C43.24216913 148.14874981 43.12198138 150.07443677 43 152 C42.67 152 42.34 152 42 152 C42 145.73 42 139.46 42 133 C11.31 133.495 11.31 133.495 -20 134 C-20 113.21 -20 92.42 -20 71 C-13.4 71 -6.8 71 0 71 C0 47.57 0 24.14 0 0 Z " fill="#070707" transform="translate(414,418)"/>
<path d="M0 0 C6.93 0 13.86 0 21 0 C21 7.26 21 14.52 21 22 C20.67 21.34 20.34 20.68 20 20 C13.4 20 6.8 20 0 20 C0 13.4 0 6.8 0 0 Z " fill="#0B0B0B" transform="translate(314,738)"/>
<path d="M0 0 C0.33 0 0.66 0 1 0 C1 22.77 1 45.54 1 69 C10.9 68.505 10.9 68.505 21 68 C21.33 61.73 21.66 55.46 22 49 C22.33 49 22.66 49 23 49 C23 56.26 23 63.52 23 71 C15.41 71 7.82 71 0 71 C0 47.57 0 24.14 0 0 Z " fill="#3D3C3C" transform="translate(414,418)"/>
<path d="M0 0 C0.33 0 0.66 0 1 0 C1 3.3 1 6.6 1 10 C-18.14 10 -37.28 10 -57 10 C-57 16.93 -57 23.86 -57 31 C-57.99 31 -58.98 31 -60 31 C-60 23.74 -60 16.48 -60 9 C-40.2 9 -20.4 9 0 9 C0 6.03 0 3.06 0 0 Z " fill="#A1A1A1" transform="translate(661,603)"/>
<path d="M0 0 C0.99 0 1.98 0 3 0 C3 7.26 3 14.52 3 22 C-3.27 22 -9.54 22 -16 22 C-16 21.01 -16 20.02 -16 19 C-10.72 19 -5.44 19 0 19 C0 12.73 0 6.46 0 0 Z " fill="#2A2A2A" transform="translate(369,340)"/>
<path d="M0 0 C4.10403363 -0.08694042 8.20783129 -0.14037149 12.3125 -0.1875 C13.47974609 -0.21263672 14.64699219 -0.23777344 15.84960938 -0.26367188 C16.96787109 -0.27333984 18.08613281 -0.28300781 19.23828125 -0.29296875 C20.26993408 -0.3086792 21.30158691 -0.32438965 22.36450195 -0.34057617 C25 0 25 0 28 3 C19.09 3 10.18 3 1 3 C0.67 2.01 0.34 1.02 0 0 Z " fill="#0C0C0C" transform="translate(335,760)"/>
<path d="M0 0 C7.59 0 15.18 0 23 0 C23 0.99 23 1.98 23 3 C16.07 3 9.14 3 2 3 C2.33 4.65 2.66 6.3 3 8 C3.06652855 10.26995419 3.08543751 12.54168695 3.0625 14.8125 C3.05347656 15.97394531 3.04445313 17.13539063 3.03515625 18.33203125 C3.02355469 19.21246094 3.01195312 20.09289062 3 21 C2.67 21 2.34 21 2 21 C1.67 17.7 1.34 14.4 1 11 C0.67 11 0.34 11 0 11 C0 7.37 0 3.74 0 0 Z " fill="#272727" transform="translate(661,592)"/>
<path d="M0 0 C0.99 0 1.98 0 3 0 C3 7.26 3 14.52 3 22 C2.01 22 1.02 22 0 22 C0 14.74 0 7.48 0 0 Z " fill="#838485" transform="translate(601,612)"/>
<path d="M0 0 C0.33 0 0.66 0 1 0 C1 7.26 1 14.52 1 22 C-6.26 22 -13.52 22 -21 22 C-21 21.34 -21 20.68 -21 20 C-11.1 19.505 -11.1 19.505 -1 19 C-0.67 12.73 -0.34 6.46 0 0 Z " fill="#464646" transform="translate(436,467)"/>
<path d="M0 0 C0.99 0 1.98 0 3 0 C3 7.26 3 14.52 3 22 C-0.63 22 -4.26 22 -8 22 C-8 21.67 -8 21.34 -8 21 C-4.04 20.505 -4.04 20.505 0 20 C0 13.4 0 6.8 0 0 Z " fill="#3B3B3B" transform="translate(205,634)"/>
<path d="M0 0 C5.28 0 10.56 0 16 0 C16 0.33 16 0.66 16 1 C21.28 1.33 26.56 1.66 32 2 C32 2.33 32 2.66 32 3 C21.11 3 10.22 3 -1 3 C-0.67 2.01 -0.34 1.02 0 0 Z " fill="#232323" transform="translate(801,246)"/>
</svg>
