<?xml version="1.0" encoding="UTF-8"?>
<svg version="1.1" xmlns="http://www.w3.org/2000/svg" width="500" height="500">
<path d="M0 0 C7.26 0 14.52 0 22 0 C22 8.91 22 17.82 22 27 C18.04 27 14.08 27 10 27 C10 30.63 10 34.26 10 38 C6.7 38 3.4 38 0 38 C0.33 41.3 0.66 44.6 1 48 C-1.79120091 49.39560045 -4.20205692 49.21808288 -7.3203125 49.31640625 C-8.57714844 49.35830078 -9.83398438 49.40019531 -11.12890625 49.44335938 C-13.10697266 49.50233398 -13.10697266 49.50233398 -15.125 49.5625 C-16.46485751 49.60569512 -17.80470156 49.64930973 -19.14453125 49.69335938 C-22.42957815 49.79970981 -25.71470281 49.90173808 -29 50 C-28.98259766 51.04800781 -28.98259766 51.04800781 -28.96484375 52.1171875 C-28.95130859 53.48230469 -28.95130859 53.48230469 -28.9375 54.875 C-28.92589844 55.77992188 -28.91429687 56.68484375 -28.90234375 57.6171875 C-29 60 -29 60 -30 62 C-66.3 61.67 -102.6 61.34 -140 61 C-140 64.3 -140 67.6 -140 71 C-141 72 -141 72 -144.87719727 72.11352539 C-146.60694167 72.11336621 -148.33669081 72.10766849 -150.06640625 72.09765625 C-150.97502914 72.0962413 -151.88365204 72.09482635 -152.81980896 72.09336853 C-155.73407221 72.08775193 -158.64825981 72.07519665 -161.5625 72.0625 C-163.53320202 72.05748714 -165.50390524 72.05292386 -167.47460938 72.04882812 C-172.31643559 72.03777711 -177.15820495 72.02050138 -182 72 C-181.67 74.31 -181.34 76.62 -181 79 C-147.74367475 79.28322545 -147.74367475 79.28322545 -114.50878906 78.35791016 C-98.36125459 77.60159175 -82.16098826 77.91903312 -66 78 C-65.67 74.7 -65.34 71.4 -65 68 C-61.83454418 67.20863605 -59.72422795 66.87390327 -56.5612793 66.87060547 C-55.25292366 66.86587723 -55.25292366 66.86587723 -53.9181366 66.86105347 C-52.51039726 66.86408981 -52.51039726 66.86408981 -51.07421875 66.8671875 C-49.60454399 66.86575241 -49.60454399 66.86575241 -48.10517883 66.86428833 C-46.0264174 66.86360772 -43.94765384 66.86545373 -41.86889648 66.86962891 C-38.73741663 66.87491573 -35.60608439 66.86971291 -32.47460938 66.86328125 C-7.13703141 66.85166951 -7.13703141 66.85166951 0 68 C1.25069801 70.50139602 1.13302467 72.27392691 1.125 75.0625 C1.12757813 75.96097656 1.13015625 76.85945313 1.1328125 77.78515625 C1 80 1 80 0 81 C-3.33618231 81.14257189 -6.65975606 81.04228157 -10 81 C-10 84.3 -10 87.6 -10 91 C-17.01805857 92.10087193 -23.90565767 92.09733092 -31 92 C-31 95.63 -31 99.26 -31 103 C-57.4 103 -83.8 103 -111 103 C-111 106.3 -111 109.6 -111 113 C-138.06 113 -165.12 113 -193 113 C-193 106.4 -193 99.8 -193 93 C-196.3 93 -199.6 93 -203 93 C-203 105.87 -203 118.74 -203 132 C-200.03 132 -197.06 132 -194 132 C-194 128.37 -194 124.74 -194 121 C-139.88 121 -85.76 121 -30 121 C-30 124.96 -30 128.92 -30 133 C-33.63 133 -37.26 133 -41 133 C-41 136.63 -41 140.26 -41 144 C-47.93 144 -54.86 144 -62 144 C-61.67 144.66 -61.34 145.32 -61 146 C-61 148.64 -61 151.28 -61 154 C-87.73 154 -114.46 154 -142 154 C-142 157.3 -142 160.6 -142 164 C-155.2 164 -168.4 164 -182 164 C-182 166.31 -182 168.62 -182 171 C-181.43401124 170.99907821 -180.86802248 170.99815641 -180.28488255 170.99720669 C-166.53164365 170.97515035 -152.77840784 170.95865167 -139.02515507 170.94818783 C-132.3742647 170.94295826 -125.72339214 170.93585928 -119.07250977 170.92456055 C-112.65997123 170.91373429 -106.24744496 170.90772372 -99.83489799 170.90512276 C-97.38235722 170.90326803 -94.92981715 170.89964653 -92.47728157 170.89426994 C-89.05523323 170.88706298 -85.63323629 170.88600891 -82.21118164 170.88647461 C-80.6737027 170.8810817 -80.6737027 170.8810817 -79.10516357 170.87557983 C-78.17823196 170.8769545 -77.25130035 170.87832916 -76.29627991 170.87974548 C-75.48602387 170.87882369 -74.67576784 170.8779019 -73.8409586 170.87695217 C-72 171 -72 171 -71 172 C-70.85644883 176.00220653 -70.95783597 179.99441683 -71 184 C-74.96 184 -78.92 184 -83 184 C-82.34 187.3 -81.68 190.6 -81 194 C-90.9 194 -100.8 194 -111 194 C-111 197.3 -111 200.6 -111 204 C-138.72 204 -166.44 204 -195 204 C-195 200.7 -195 197.4 -195 194 C-204.57 194 -214.14 194 -224 194 C-224 190.7 -224 187.4 -224 184 C-226.97 184 -229.94 184 -233 184 C-233.33 187.3 -233.66 190.6 -234 194 C-237.3 194 -240.6 194 -244 194 C-244 197.3 -244 200.6 -244 204 C-246.97 204 -249.94 204 -253 204 C-253.33 207.63 -253.66 211.26 -254 215 C-257.3 214.67 -260.6 214.34 -264 214 C-263.67 216.64 -263.34 219.28 -263 222 C-262.28714844 221.98839844 -261.57429688 221.97679687 -260.83984375 221.96484375 C-255.43674634 221.91393974 -250.32171525 222.05391729 -245 223 C-245 219.7 -245 216.4 -245 213 C-241.37 213 -237.74 213 -234 213 C-234 209.7 -234 206.4 -234 203 C-218.655 202.505 -218.655 202.505 -203 202 C-203 205.3 -203 208.6 -203 212 C-193.1 212 -183.2 212 -173 212 C-173 215.3 -173 218.6 -173 222 C-159.14 222 -145.28 222 -131 222 C-131 226.29 -131 230.58 -131 235 C-134.3 235 -137.6 235 -141 235 C-141 238.3 -141 241.6 -141 245 C-158.49 245 -175.98 245 -194 245 C-194 241.7 -194 238.4 -194 235 C-203.57 235 -213.14 235 -223 235 C-223 237.64 -223 240.28 -223 243 C-222.15236084 242.97643433 -222.15236084 242.97643433 -221.28759766 242.95239258 C-218.73349977 242.89012955 -216.17956129 242.85103864 -213.625 242.8125 C-212.73554688 242.78736328 -211.84609375 242.76222656 -210.9296875 242.73632812 C-210.07890625 242.72666016 -209.228125 242.71699219 -208.3515625 242.70703125 C-207.17327881 242.68346558 -207.17327881 242.68346558 -205.97119141 242.65942383 C-204.99545166 242.82800903 -204.99545166 242.82800903 -204 243 C-202 246 -202 246 -202.375 249.1875 C-202.58125 250.115625 -202.7875 251.04375 -203 252 C-202.34 252 -201.68 252 -201 252 C-201 252.66 -201 253.32 -201 254 C-194.73 254 -188.46 254 -182 254 C-182 257.96 -182 261.92 -182 266 C-185.63 266 -189.26 266 -193 266 C-193 268.97 -193 271.94 -193 275 C-203.56 275 -214.12 275 -225 275 C-224.67 272.03 -224.34 269.06 -224 266 C-229.94 266 -235.88 266 -242 266 C-242 268.64 -242 271.28 -242 274 C-243 275 -243 275 -246.23461914 275.11352539 C-247.66814126 275.11336631 -249.10166912 275.10767407 -250.53515625 275.09765625 C-251.66503212 275.09553383 -251.66503212 275.09553383 -252.81773376 275.09336853 C-255.2326956 275.08775376 -257.64756601 275.07519883 -260.0625 275.0625 C-261.69596221 275.0574869 -263.32942586 275.05292366 -264.96289062 275.04882812 C-268.97529585 275.03777954 -272.98763241 275.02050506 -277 275 C-277.125 268.25 -277.125 268.25 -276 266 C-282.6 266 -289.2 266 -296 266 C-296 262.7 -296 259.4 -296 256 C-298.97 256 -301.94 256 -305 256 C-305.9681648 252.1273408 -306.07622858 248.96388638 -306 245 C-309.63 245 -313.26 245 -317 245 C-316.67 234.44 -316.34 223.88 -316 213 C-313.03 213 -310.06 213 -307 213 C-306.67 209.7 -306.34 206.4 -306 203 C-299.07 203 -292.14 203 -285 203 C-285 199.37 -285 195.74 -285 192 C-282.36 192 -279.72 192 -277 192 C-277 188.7 -277 185.4 -277 182 C-273.37 181.67 -269.74 181.34 -266 181 C-266 174.73 -266 168.46 -266 162 C-258 162 -258 162 -256 163 C-255.67 152.44 -255.34 141.88 -255 131 C-252.03 131 -249.06 131 -246 131 C-245.67 114.5 -245.34 98 -245 81 C-241.37 81 -237.74 81 -234 81 C-234 77.37 -234 73.74 -234 70 C-231.03 70 -228.06 70 -225 70 C-225.33 69.34 -225.66 68.68 -226 68 C-226.13559318 64.99525503 -226.04299016 62.00931153 -226 59 C-222.37 59 -218.74 59 -215 59 C-214.67 55.37 -214.34 51.74 -214 48 C-198.16 48 -182.32 48 -166 48 C-166 44.37 -166 40.74 -166 37 C-163.69352001 35.84676001 -162.39268433 35.87428564 -159.82711792 35.87301636 C-158.9524437 35.87019653 -158.07776947 35.86737671 -157.17658997 35.86447144 C-156.21452133 35.86649567 -155.2524527 35.8685199 -154.26123047 35.87060547 C-152.74388054 35.86797699 -152.74388054 35.86797699 -151.19587708 35.86529541 C-147.83629666 35.86087807 -144.4767685 35.8638158 -141.1171875 35.8671875 C-138.78508494 35.86651411 -136.45298245 35.86554379 -134.12088013 35.86428833 C-129.22315811 35.86281126 -124.32545428 35.86496505 -119.42773438 35.86962891 C-113.15991695 35.87530729 -106.89214253 35.87205927 -100.62432671 35.86605644 C-95.80296508 35.86243492 -90.98161356 35.86359706 -86.16025162 35.86618423 C-83.85026164 35.86685008 -81.54027073 35.86603705 -79.23028183 35.86370468 C-75.99187561 35.86115419 -72.75353787 35.86505335 -69.51513672 35.87060547 C-68.56521347 35.86858124 -67.61529022 35.86655701 -66.63658142 35.86447144 C-61.33288178 35.88124534 -56.24864816 36.22763121 -51 37 C-51 33.37 -51 29.74 -51 26 C-42.09 26 -33.18 26 -24 26 C-24 22.37 -24 18.74 -24 15 C-16.08 15 -8.16 15 0 15 C0 10.05 0 5.1 0 0 Z M-193 82 C-193 84.97 -193 87.94 -193 91 C-189.7 91 -186.4 91 -183 91 C-183 88.03 -183 85.06 -183 82 C-186.3 82 -189.6 82 -193 82 Z M-213 133 C-213 142.57 -213 152.14 -213 162 C-203.1 162 -193.2 162 -183 162 C-183 159.36 -183 156.72 -183 154 C-189.93 154 -196.86 154 -204 154 C-204 147.07 -204 140.14 -204 133 C-206.97 133 -209.94 133 -213 133 Z M-223 165 C-223 170.28 -223 175.56 -223 181 C-220.03 181 -217.06 181 -214 181 C-214 175.72 -214 170.44 -214 165 C-216.97 165 -219.94 165 -223 165 Z M-285 225 C-285.10655578 231.44070471 -284.96205088 237.62641289 -284 244 C-281.66705225 244.04241723 -279.33297433 244.04092937 -277 244 C-275.41727399 242.41727399 -275.65264253 240.61965997 -275.4375 238.4375 C-275.293125 236.973125 -275.14875 235.50875 -275 234 C-269.555 233.505 -269.555 233.505 -264 233 C-263.95758277 230.66705225 -263.95907063 228.33297433 -264 226 C-264.99483202 224.78356708 -264.99483202 224.78356708 -266.94946289 224.88647461 C-268.1984436 224.89432983 -268.1984436 224.89432983 -269.47265625 224.90234375 C-270.82133789 224.90717773 -270.82133789 224.90717773 -272.19726562 224.91210938 C-273.14279297 224.92048828 -274.08832031 224.92886719 -275.0625 224.9375 C-276.01189453 224.94201172 -276.96128906 224.94652344 -277.93945312 224.95117188 C-280.29303065 224.9629989 -282.64648477 224.97947975 -285 225 Z M-244 225 C-244 227.64 -244 230.28 -244 233 C-237.73 233 -231.46 233 -225 233 C-225 230.36 -225 227.72 -225 225 C-231.27 225 -237.54 225 -244 225 Z M-252 255 C-252 257.64 -252 260.28 -252 263 C-247.99745544 263.09181134 -247.99745544 263.09181134 -244 263 C-242.58422523 261.81575674 -242.58422523 261.81575674 -242.9375 258.4375 C-242.958125 257.303125 -242.97875 256.16875 -243 255 C-245.97 255 -248.94 255 -252 255 Z " fill="#F4F4F4" transform="translate(406,106)"/>
<path d="" fill="#000000" transform="translate(0,0)"/>
<path d="" fill="#000000" transform="translate(0,0)"/>
<path d="" fill="#000000" transform="translate(0,0)"/>
<path d="" fill="#000000" transform="translate(0,0)"/>
<path d="" fill="#000000" transform="translate(0,0)"/>
<path d="" fill="#000000" transform="translate(0,0)"/>
<path d="" fill="#000000" transform="translate(0,0)"/>
<path d="" fill="#000000" transform="translate(0,0)"/>
<path d="" fill="#000000" transform="translate(0,0)"/>
<path d="" fill="#000000" transform="translate(0,0)"/>
<path d="" fill="#000000" transform="translate(0,0)"/>
<path d="" fill="#000000" transform="translate(0,0)"/>
<path d="" fill="#000000" transform="translate(0,0)"/>
<path d="" fill="#000000" transform="translate(0,0)"/>
<path d="" fill="#000000" transform="translate(0,0)"/>
<path d="" fill="#000000" transform="translate(0,0)"/>
<path d="" fill="#000000" transform="translate(0,0)"/>
<path d="" fill="#000000" transform="translate(0,0)"/>
<path d="" fill="#000000" transform="translate(0,0)"/>
<path d="" fill="#000000" transform="translate(0,0)"/>
<path d="" fill="#000000" transform="translate(0,0)"/>
<path d="" fill="#000000" transform="translate(0,0)"/>
<path d="" fill="#000000" transform="translate(0,0)"/>
<path d="" fill="#000000" transform="translate(0,0)"/>
<path d="" fill="#000000" transform="translate(0,0)"/>
<path d="" fill="#000000" transform="translate(0,0)"/>
<path d="" fill="#000000" transform="translate(0,0)"/>
<path d="" fill="#000000" transform="translate(0,0)"/>
<path d="" fill="#000000" transform="translate(0,0)"/>
<path d="" fill="#000000" transform="translate(0,0)"/>
<path d="" fill="#000000" transform="translate(0,0)"/>
<path d="" fill="#000000" transform="translate(0,0)"/>
<path d="" fill="#000000" transform="translate(0,0)"/>
<path d="" fill="#000000" transform="translate(0,0)"/>
<path d="" fill="#000000" transform="translate(0,0)"/>
<path d="" fill="#000000" transform="translate(0,0)"/>
<path d="" fill="#000000" transform="translate(0,0)"/>
<path d="" fill="#000000" transform="translate(0,0)"/>
<path d="" fill="#000000" transform="translate(0,0)"/>
<path d="" fill="#000000" transform="translate(0,0)"/>
<path d="" fill="#000000" transform="translate(0,0)"/>
<path d="" fill="#000000" transform="translate(0,0)"/>
<path d="" fill="#000000" transform="translate(0,0)"/>
<path d="" fill="#000000" transform="translate(0,0)"/>
<path d="" fill="#000000" transform="translate(0,0)"/>
<path d="" fill="#000000" transform="translate(0,0)"/>
<path d="" fill="#000000" transform="translate(0,0)"/>
<path d="" fill="#000000" transform="translate(0,0)"/>
<path d="" fill="#000000" transform="translate(0,0)"/>
<path d="" fill="#000000" transform="translate(0,0)"/>
<path d="" fill="#000000" transform="translate(0,0)"/>
<path d="" fill="#000000" transform="translate(0,0)"/>
<path d="" fill="#000000" transform="translate(0,0)"/>
<path d="" fill="#000000" transform="translate(0,0)"/>
<path d="" fill="#000000" transform="translate(0,0)"/>
<path d="" fill="#000000" transform="translate(0,0)"/>
<path d="" fill="#000000" transform="translate(0,0)"/>
<path d="" fill="#000000" transform="translate(0,0)"/>
<path d="" fill="#000000" transform="translate(0,0)"/>
<path d="" fill="#000000" transform="translate(0,0)"/>
<path d="" fill="#000000" transform="translate(0,0)"/>
<path d="" fill="#000000" transform="translate(0,0)"/>
<path d="" fill="#000000" transform="translate(0,0)"/>
<path d="" fill="#000000" transform="translate(0,0)"/>
<path d="" fill="#000000" transform="translate(0,0)"/>
<path d="" fill="#000000" transform="translate(0,0)"/>
<path d="" fill="#000000" transform="translate(0,0)"/>
<path d="" fill="#000000" transform="translate(0,0)"/>
<path d="" fill="#000000" transform="translate(0,0)"/>
<path d="" fill="#000000" transform="translate(0,0)"/>
<path d="" fill="#000000" transform="translate(0,0)"/>
<path d="" fill="#000000" transform="translate(0,0)"/>
<path d="" fill="#000000" transform="translate(0,0)"/>
<path d="" fill="#000000" transform="translate(0,0)"/>
<path d="" fill="#000000" transform="translate(0,0)"/>
<path d="" fill="#000000" transform="translate(0,0)"/>
<path d="" fill="#000000" transform="translate(0,0)"/>
<path d="" fill="#000000" transform="translate(0,0)"/>
<path d="" fill="#000000" transform="translate(0,0)"/>
<path d="" fill="#000000" transform="translate(0,0)"/>
<path d="" fill="#000000" transform="translate(0,0)"/>
<path d="" fill="#000000" transform="translate(0,0)"/>
<path d="" fill="#000000" transform="translate(0,0)"/>
<path d="" fill="#000000" transform="translate(0,0)"/>
</svg>
